HIERARCHY
ROOT root
{
	OFFSET 0.000000 0.000000 0.000000
	CHANNELS 6 Xposition Yposition Zposition Zrotation Yrotation Xrotation
	JOINT lhip
	{
		OFFSET 0.058581 -0.082280 -0.017664
		CHANNELS 3 Zrotation Yrotation Xrotation
		JOINT lknee
		{
			OFFSET 0.043451 -0.386469 0.008037
			CHANNELS 3 Zrotation Yrotation Xrotation
			JOINT lankle
			{
				OFFSET -0.014790 -0.426874 -0.037428
				CHANNELS 3 Zrotation Yrotation Xrotation
				JOINT ltoe
				{
					OFFSET 0.041054 -0.060286 0.122042
					CHANNELS 3 Zrotation Yrotation Xrotation
					End Site
					{
						OFFSET 0.000000 0.000000 0.000000
					}
				}
			}
		}
	}
	JOINT rhip
	{
		OFFSET -0.060310 -0.090513 -0.013543
		CHANNELS 3 Zrotation Yrotation Xrotation
		JOINT rknee
		{
			OFFSET -0.043257 -0.383688 -0.004843
			CHANNELS 3 Zrotation Yrotation Xrotation
			JOINT rankle
			{
				OFFSET 0.019056 -0.420046 -0.034562
				CHANNELS 3 Zrotation Yrotation Xrotation
				JOINT rtoe
				{
					OFFSET -0.034840 -0.062106 0.130323
					CHANNELS 3 Zrotation Yrotation Xrotation
					End Site
					{
						OFFSET 0.000000 0.000000 0.000000
					}
				}
			}
		}
	}
	JOINT lowerback
	{
		OFFSET 0.004439 0.124404 -0.038385
		CHANNELS 3 Zrotation Yrotation Xrotation
		JOINT upperback
		{
			OFFSET 0.004488 0.137956 0.026820
			CHANNELS 3 Zrotation Yrotation Xrotation
			JOINT chest
			{
				OFFSET -0.002265 0.056032 0.002855
				CHANNELS 3 Zrotation Yrotation Xrotation
				JOINT lowerneck
				{
					OFFSET -0.013390 0.211636 -0.033468
					CHANNELS 3 Zrotation Yrotation Xrotation
					JOINT upperneck
					{
						OFFSET 0.010113 0.088937 0.050410
						CHANNELS 3 Zrotation Yrotation Xrotation
						End Site
						{
							OFFSET 0.000000 0.000000 0.000000
						}
					}
				}
				JOINT lclavicle
				{
					OFFSET 0.071702 0.114000 -0.018898
					CHANNELS 3 Zrotation Yrotation Xrotation
					JOINT lshoulder
					{
						OFFSET 0.122921 0.045205 -0.019046
						CHANNELS 3 Zrotation Yrotation Xrotation
						JOINT lelbow
						{
							OFFSET 0.255332 -0.015649 -0.022946
							CHANNELS 3 Zrotation Yrotation Xrotation
							JOINT lwrist
							{
								OFFSET 0.265709 0.012698 -0.007375
								CHANNELS 3 Zrotation Yrotation Xrotation
								End Site
								{
									OFFSET 0.000000 0.000000 0.000000
								}
							}
						}
					}
				}
				JOINT rclavicle
				{
					OFFSET -0.082954 0.112472 -0.023707
					CHANNELS 3 Zrotation Yrotation Xrotation
					JOINT rshoulder
					{
						OFFSET -0.113228 0.046853 -0.008472
						CHANNELS 3 Zrotation Yrotation Xrotation
						JOINT relbow
						{
							OFFSET -0.260127 -0.014369 -0.031269
							CHANNELS 3 Zrotation Yrotation Xrotation
							JOINT rwrist
							{
								OFFSET -0.269108 0.006794 -0.006027
								CHANNELS 3 Zrotation Yrotation Xrotation
								End Site
								{
									OFFSET 0.000000 0.000000 0.000000
								}
							}
						}
					}
				}
			}
		}
	}
}
MOTION
Frames: 15
Frame Time: 0.033333
0.468079 0.769878 1.312066 -29.342206 -2.021608 91.453463 0.251143 -5.091568 -9.187376 -3.300131 0.701700 7.081403 -6.532932 6.622029 28.961151 0.000000 -0.000000 0.000000 -1.158537 -9.300403 -3.006535 0.960719 -13.110664 17.899858 11.593127 -8.172450 44.912076 0.000000 -0.000000 0.000000 -0.915291 4.966938 5.639480 2.073379 -0.829263 -3.476431 1.436632 -0.544817 4.249049 -2.367176 -2.155261 6.781250 7.284469 4.668205 5.461063 -21.543481 -2.199421 2.304243 -59.753463 -9.510157 21.710527 -6.793121 -58.506017 30.324615 -2.475966 -8.798680 -7.173447 16.327994 4.292927 -3.661873 50.364557 10.018097 19.938081 -2.119015 54.723539 18.368911 17.265484 4.312504 -3.521056 
0.463812 0.764180 1.374980 -19.006585 -1.073816 87.332863 0.936091 -3.691310 -6.206606 -3.574746 -3.980464 12.748171 -9.372724 3.888387 27.875636 0.000000 -0.000000 0.000000 0.845531 -6.746889 -2.017625 0.879112 -9.203664 26.017623 12.495544 -3.617780 44.563083 0.000000 -0.000000 0.000000 -0.163370 4.350821 8.950716 2.650023 -0.567447 -3.546571 1.761181 -1.043630 4.728127 -2.451408 -1.416381 5.775973 7.278799 4.305001 5.784721 -24.087103 -3.912573 2.206173 -63.248787 -11.245041 20.303538 0.521342 -50.853545 22.038547 -4.199132 -7.347481 -1.881985 18.879564 3.800868 -2.949608 51.626100 6.984146 18.054651 -3.103227 52.321063 15.311312 14.295768 4.694512 -7.054882 
0.462257 0.758963 1.427953 -7.132111 -1.092081 85.492357 1.205769 -5.096650 -4.546436 -3.625920 -6.465731 14.578684 -11.559764 3.614698 27.291132 0.000000 -0.000000 0.000000 3.371130 -4.425712 1.383574 -0.210237 -3.748392 19.938563 11.081158 -3.765787 42.090986 0.000000 -0.000000 0.000000 -1.358655 2.860886 7.584279 3.245709 -2.975445 0.547847 2.302872 -1.564888 4.327730 -1.929440 -1.746651 6.722680 7.546627 4.154850 5.491091 -26.318440 -3.739965 1.570634 -65.079512 -12.177919 19.311420 6.430234 -44.981792 14.707648 -2.010926 -5.912482 -3.139608 21.598598 3.496910 -1.175000 52.533386 8.075101 17.723459 -5.563795 48.118945 11.832012 11.983565 4.209499 -9.169299 
0.463919 0.756361 1.470327 5.040869 -1.947311 86.131178 1.024102 -5.896496 -5.148118 -3.258714 -5.989428 13.401392 -11.911431 5.130988 27.480046 0.000000 -0.000000 0.000000 2.143296 -4.063941 1.140410 -0.721021 -5.777745 15.604670 8.506517 -5.195633 32.395530 0.000000 -0.000000 0.000000 -2.501526 1.760122 5.650732 3.052051 -4.786954 0.750289 1.842107 -2.504883 4.297769 -1.334007 -1.134894 7.101351 7.261911 3.096320 5.075144 -27.505782 -2.286993 1.813097 -64.017079 -12.789608 18.605988 7.469925 -41.325004 13.210454 -2.143664 -5.694091 -3.596386 23.807117 1.753121 -0.034860 54.156758 8.240547 17.918292 -7.534197 44.278442 10.562590 11.609320 3.513160 -8.014160 
0.464225 0.755142 1.503225 14.868530 -1.956491 86.599464 2.213759 -3.422744 -5.522221 -3.362936 -3.209705 12.157307 -12.531614 5.242775 25.622787 0.000000 -0.000000 0.000000 0.676865 -5.028669 -0.418008 -0.556565 -7.867249 14.887879 11.954220 -3.857080 32.148310 0.000000 -0.000000 0.000000 -2.149449 2.389354 5.206710 2.686389 -4.405770 -0.159567 1.047126 -2.667635 3.677898 -1.612588 0.230759 7.462253 7.132457 2.201798 4.419786 -27.231493 -2.559849 2.511784 -61.466334 -13.107338 17.509363 5.391489 -38.913539 13.889288 -2.653940 -6.051306 -0.513908 24.823414 -0.154634 -0.060368 54.117027 5.929646 16.761052 -6.399553 43.244131 10.685298 11.215286 3.626673 -6.731924 
0.466118 0.754908 1.524253 23.155916 -1.943377 85.944132 2.937533 -0.694813 -4.445283 -3.643688 -1.112576 10.685452 -11.859582 6.076531 25.013728 0.000000 -0.000000 0.000000 -0.797113 -5.990044 -1.618977 -0.293197 -6.239369 16.460271 13.182334 -3.636860 34.337266 0.000000 -0.000000 0.000000 -1.506362 2.774926 5.979379 2.162365 -3.481520 -0.289515 0.772032 -2.168276 3.676210 -2.152707 0.200629 6.915452 7.707863 2.574915 4.956556 -26.012146 -4.403359 2.070574 -58.461264 -12.506840 16.199087 3.930968 -36.746129 13.000456 -2.386416 -6.660194 1.066010 23.750759 0.370830 0.230110 53.420973 3.587993 15.780407 -5.924457 43.946251 8.720644 10.679233 3.468554 -6.544513 
0.466348 0.755869 1.533299 31.358939 -1.669909 85.472823 3.940397 0.604929 -4.022948 -4.285647 -0.674584 10.023351 -11.442337 6.802847 25.319388 0.000000 -0.000000 0.000000 -1.627335 -6.423547 -2.985865 -0.206975 -4.565996 18.522736 11.477054 -4.528284 33.612768 0.000000 -0.000000 0.000000 -1.576014 2.610727 6.536710 2.181459 -3.090631 0.420174 1.362095 -1.635914 3.323746 -2.278055 -0.541107 6.946997 8.222181 3.255194 5.165607 -25.266235 -5.120045 1.307937 -54.784567 -11.695459 14.375047 3.800146 -35.433557 11.284987 -2.138029 -6.292111 2.552529 22.490897 1.647053 0.533671 50.493725 2.172669 14.778062 -5.280422 44.502356 8.373823 12.602159 3.546787 -5.139494 
0.468280 0.756954 1.532118 39.664490 -1.071275 85.259329 4.481331 0.507684 -4.044426 -3.836274 -1.988033 9.857033 -12.099870 7.679892 26.082871 0.000000 -0.000000 0.000000 -1.848741 -5.170677 -3.731090 -0.372878 -2.808962 19.203772 10.042054 -5.195302 32.672544 0.000000 -0.000000 0.000000 -0.711681 1.786743 6.955254 2.159103 -3.013793 0.651094 1.229693 -1.421017 2.927727 -2.397019 -1.108452 7.831750 8.274696 3.741091 4.546977 -24.988157 -4.714001 0.956608 -50.153178 -10.743689 12.359535 4.249088 -34.749242 8.029506 -1.723995 -6.249565 3.861248 21.709620 2.175144 0.514857 46.271703 1.560728 14.185045 -3.794976 44.573435 8.705126 12.861634 3.363820 -3.571526 
0.469957 0.757271 1.521130 47.572072 -0.810492 85.207827 4.497204 0.375019 -4.259837 -3.625180 -3.332846 10.217279 -11.732700 8.538524 26.134090 0.000000 -0.000000 0.000000 -2.456951 -5.032750 -3.909957 -0.189921 -1.211970 18.561925 10.512555 -5.093869 31.814225 0.000000 -0.000000 0.000000 -0.198638 1.358564 7.229736 1.951735 -3.216280 0.323929 0.846823 -1.542225 2.946166 -2.471894 -1.224306 8.226462 8.054196 3.648178 4.033648 -24.217932 -3.940337 0.619871 -45.311287 -9.787061 10.545643 4.010280 -33.354014 5.692416 -1.097767 -6.723714 4.090742 21.595751 2.084017 -0.143608 42.464891 1.904319 13.533650 -2.908568 42.707753 7.942022 11.924353 3.525860 -2.184131 
0.470878 0.757219 1.498734 54.348314 -0.451217 85.614511 4.848672 1.210717 -4.660443 -3.615796 -3.525248 10.168285 -11.885165 8.631775 25.685421 0.000000 -0.000000 0.000000 -2.751556 -5.247497 -4.569598 0.183704 -0.212586 17.600935 10.428784 -5.332812 31.543681 0.000000 -0.000000 0.000000 0.127994 1.153451 6.543388 1.946333 -3.285107 0.739533 0.679991 -1.590475 3.044741 -2.464614 -1.424204 8.532461 7.996374 3.846056 3.745051 -23.195265 -3.552035 0.759159 -41.294325 -8.106889 8.767988 3.847397 -32.057516 3.759567 -2.176813 -6.935415 4.934494 20.690563 2.495289 -0.554940 39.379473 2.638054 12.494980 -2.566989 41.056362 6.440460 13.333637 3.264942 -1.847559 
0.469659 0.757218 1.466192 60.212178 -0.183730 85.997640 5.169558 1.837783 -4.732130 -3.744373 -3.370512 9.517330 -11.759480 9.267903 25.598313 0.000000 -0.000000 0.000000 -2.837329 -5.244183 -5.609969 0.339234 -0.760646 16.496044 10.400006 -6.142691 31.337377 0.000000 -0.000000 0.000000 -0.109510 1.055623 6.931193 2.056124 -3.337316 0.591006 0.940198 -1.514564 2.906752 -2.035451 -1.421290 8.744961 7.807353 3.681291 3.473539 -22.084212 -2.926611 1.016103 -37.952129 -5.845575 7.649827 2.358650 -30.634651 3.573482 -2.672434 -7.360750 5.944755 19.828116 2.995157 -1.426583 37.171943 3.653531 11.580840 -2.520044 39.300104 5.048858 13.939278 2.950226 -0.305061 
0.468536 0.757195 1.423780 65.014256 -0.110167 85.796024 5.127118 2.072022 -3.798487 -3.877923 -3.845795 8.445262 -11.672155 9.879213 25.188333 0.000000 -0.000000 0.000000 -2.940994 -4.968543 -5.887000 0.317114 -1.182807 14.583338 11.265662 -6.415681 31.445332 0.000000 -0.000000 0.000000 -0.043498 1.016428 8.517364 1.871621 -3.105664 0.040500 0.800385 -1.406510 2.830861 -1.464725 -0.913490 8.397081 7.392853 3.001286 3.504587 -21.200493 -2.141243 1.550357 -35.310954 -3.327393 7.108144 0.658558 -29.272918 3.954527 -3.319869 -8.310472 5.672767 19.123254 3.742988 -2.073201 36.320901 5.197394 11.400210 -3.546653 37.793945 3.212170 13.778439 2.333069 0.028478 
0.467006 0.756981 1.370544 69.372277 0.153875 85.968829 5.130018 2.573995 -3.080135 -3.775600 -4.927365 6.849591 -11.847148 9.542203 24.331978 0.000000 -0.000000 0.000000 -2.425221 -5.285028 -6.751870 0.221106 -1.668554 12.786735 12.014240 -6.304858 31.139775 0.000000 -0.000000 0.000000 0.198346 1.196954 9.446708 1.531681 -2.589220 0.214212 0.695547 -1.356853 3.085825 -1.019689 -0.429969 8.145885 7.096434 2.572099 3.582908 -20.788200 -1.618351 2.163257 -33.949247 -1.099970 6.816914 -0.542870 -28.222151 4.582026 -3.750006 -8.802040 5.899686 18.735163 4.297243 -2.842360 35.975695 6.643006 10.906428 -3.134195 36.926605 2.611661 12.178492 2.882377 0.083147 
0.466406 0.755189 1.306268 74.162758 0.419984 86.421096 5.090528 2.429793 -2.663936 -3.601934 -5.857657 5.166688 -11.519108 8.805091 23.444003 0.000000 -0.000000 0.000000 -1.880065 -5.138364 -7.683809 1.011079 -2.613656 11.225686 11.959466 -6.309103 30.522100 0.000000 -0.000000 0.000000 0.340080 1.114310 9.510259 1.295958 -2.228723 0.805684 0.339870 -1.250212 3.008666 -0.824068 -0.081449 8.254015 6.794003 2.214880 3.454377 -20.753915 -0.649394 3.158918 -34.049307 0.704849 6.480588 -0.306298 -28.000033 3.253243 -4.119677 -9.101548 5.111723 18.662755 4.802271 -2.446784 36.919694 8.140843 10.841986 -4.376219 36.499019 1.429719 13.738743 2.266841 0.664155 
0.464690 0.752826 1.232857 79.588454 0.529029 85.920008 4.762795 1.510316 -1.645422 -3.184629 -7.441437 4.089567 -10.610920 8.764246 22.604373 0.000000 -0.000000 0.000000 -1.483752 -5.403409 -7.541254 2.021578 -3.947423 10.029888 14.272925 -5.959937 31.573500 0.000000 -0.000000 0.000000 -0.023949 1.307949 11.571832 1.040023 -1.807627 0.698833 0.539935 -1.316856 2.945772 -0.542845 0.134564 8.105288 6.653065 1.900065 3.458484 -20.585296 0.306686 3.374517 -35.537637 1.522275 6.828929 -0.457276 -27.878658 3.526863 -2.453599 -9.382461 3.612410 18.664014 4.831210 -3.248228 38.546051 9.005407 11.191220 -4.070358 35.334507 1.234548 12.120176 2.354560 0.231518 
